<?xml version="1.0" encoding="UTF-8" standalone="no"?>
<svg
   version="1.1"
   width="526.8"
   height="576.24"
   viewBox="0 0 526.8 576.24"
   id="svg24"
   sodipodi:docname="QUDYMA_fabicon.svg"
   inkscape:version="1.4.2 (1:1.4.2+202505120738+ebf0e940d0)"
   inkscape:export-filename="QUDYMA_logo.png"
   inkscape:export-xdpi="96"
   inkscape:export-ydpi="96"
   xml:space="preserve"
   xmlns:inkscape="http://www.inkscape.org/namespaces/inkscape"
   xmlns:sodipodi="http://sodipodi.sourceforge.net/DTD/sodipodi-0.dtd"
   xmlns="http://www.w3.org/2000/svg"
   xmlns:svg="http://www.w3.org/2000/svg"><defs
     id="defs24" /><sodipodi:namedview
     id="namedview24"
     pagecolor="#ffffff"
     bordercolor="#000000"
     borderopacity="0.25"
     inkscape:showpageshadow="2"
     inkscape:pageopacity="0.0"
     inkscape:pagecheckerboard="0"
     inkscape:deskcolor="#d1d1d1"
     inkscape:zoom="0.5110891"
     inkscape:cx="-87.068967"
     inkscape:cy="679.92058"
     inkscape:window-width="1858"
     inkscape:window-height="1016"
     inkscape:window-x="0"
     inkscape:window-y="0"
     inkscape:window-maximized="1"
     inkscape:current-layer="g1"
     showgrid="false" /><g
     id="g1"
     transform="matrix(1.2940265,0,0,1.2940265,-76.199398,-82.750721)"><path
       style="fill:#ffffff;stroke:#ffffff;stroke-width:15.45563402;stroke-dasharray:none"
       d="m 256.8917,498.36515 c -18.92057,-1.83207 -44.50778,-17.12798 -65.30209,-39.03727 -5.11931,-5.39381 -14.16649,-16.69696 -16.0306,-20.02794 -0.47232,-0.84399 -2.8109,-1.42901 -7.9668,-1.99298 -32.13376,-3.51488 -64.69496,-17.68631 -81.169306,-35.32688 -9.91858,-10.62071 -14.40565,-22.90417 -15.15781,-41.49478 -0.86273,-21.32371 3.39921,-43.42551 12.60364,-65.36063 l 3.43031,-8.17478 -2.75831,-6.0527 c -9.84964,-21.61362 -15.39488,-50.83788 -13.58991,-71.62093 2.03548,-23.43718 9.70176,-36.7309 28.74377,-49.84312 17.492426,-12.04519 46.311196,-22.1069 68.467826,-23.90468 l 6.51487,-0.52861 5.50743,-7.42483 c 14.12549,-19.04324 34.78108,-36.46234 54.28489,-45.77911 19.67247,-9.39733 35.43215,-9.52792 55.32053,-0.45841 18.62334,8.49264 40.32268,26.6113 54.34974,45.38134 3.33511,4.46281 6.12536,8.18991 6.20055,8.28244 0.0752,0.0925 3.42262,0.53942 7.43871,0.99309 23.13934,2.61393 47.56174,10.94588 64.67924,22.06599 21.01492,13.65201 29.07849,26.85125 31.16287,51.01044 1.8086,20.9627 -3.63506,50.00336 -13.40206,71.49689 l -2.60406,5.73057 2.54434,5.40947 c 3.57069,7.59158 9.14964,24.83788 10.99933,34.00239 3.23164,16.0116 4.06427,31.60066 2.36004,44.18584 -1.09895,8.11531 -5.13341,19.72779 -8.74339,25.16632 -8.89215,13.39624 -29.08868,26.84819 -52.30162,34.83561 -11.89261,4.09218 -31.67252,8.23448 -39.38217,8.24741 -2.49744,0.004 -3.06556,0.48669 -7.0572,5.99362 -16.11124,22.22734 -39.47265,41.22686 -61.32262,49.87289 -9.9952,3.95509 -18.38106,5.26732 -27.82014,4.35334 z m 20.45434,-141.35737 c 15.3494,-15.08756 30.03826,-21.90811 57.26781,-26.59141 l 2.76233,-0.4751 -3.28356,-9.84339 c -4.88981,-14.65858 -6.09257,-21.25485 -6.09257,-33.41323 0,-12.04 1.20552,-18.75733 5.8942,-32.84322 1.69772,-5.10036 3.25401,-9.67306 3.45841,-10.16155 0.23827,-0.56943 -1.09817,-1.08558 -3.72392,-1.43823 -6.82333,-0.91642 -22.28448,-5.01536 -28.43819,-7.53932 -13.81369,-5.66572 -25.93067,-15.26749 -39.21218,-31.07261 l -3.23091,-3.84481 -2.8974,3.45842 c -6.32902,7.55449 -16.4107,17.43134 -22.25246,21.80036 -10.79129,8.07074 -22.41269,12.83861 -39.98252,16.40348 -5.11321,1.03746 -9.44331,2.03285 -9.62244,2.21199 -0.17914,0.17913 0.57522,2.7173 1.67634,5.64037 3.26674,8.67198 6.48251,21.79487 7.31487,29.8505 1.29191,12.50316 -0.64567,25.10871 -6.49941,42.28393 -1.51619,4.44858 -2.75671,8.36079 -2.75671,8.69379 0,0.333 0.74057,0.60545 1.64571,0.60545 2.67835,0 18.91186,3.82049 25.29131,5.9522 15.59618,5.21151 27.51982,13.70381 41.16052,29.31552 l 6.43471,7.36449 4.20171,-4.89449 c 2.31095,-2.69197 7.2089,-7.85038 10.88435,-11.46314 z"
       id="path26" /><g
       id="g25"><path
         d="m 188.19282,243.73767 c -11.65975,-30.3477 -28.46374,-60.78822 -21.23468,-84.09104 2.07321,-6.68157 5.5699,-13.77793 10.12822,-20.87501 -35.06801,1.63885 -79.33765,19.12014 -93.898816,44.34099 -14.561165,25.22086 -7.565604,72.30004 8.549204,103.48964 3.867246,-7.49665 8.263852,-14.07307 13.014122,-19.20933 16.56578,-17.91131 51.32996,-18.57918 83.44195,-23.65525 z"
         fill="#4a4a4a"
         fill-rule="evenodd"
         id="path1"
         style="stroke-width:0.725154" /><path
         stroke-width="0.725154"
         stroke-linecap="round"
         stroke-linejoin="round"
         fill="none"
         stroke="#4a4a4a"
         d="m 188.19282,243.73767 c -11.65975,-30.3477 -28.46374,-60.78822 -21.23468,-84.09104 2.07321,-6.68157 5.5699,-13.77793 10.12822,-20.87501 -35.06801,1.63885 -79.33765,19.12014 -93.898816,44.34099 -14.561165,25.22086 -7.565604,72.30004 8.549204,103.48964 3.867246,-7.49665 8.263852,-14.07307 13.014122,-19.20933 16.56578,-17.91131 51.32996,-18.57918 83.44195,-23.65525 z"
         id="path2" /><path
         d="m 433.13535,286.60225 c -3.86724,7.49591 -8.26385,14.07234 -13.01361,19.2086 -16.56615,17.91203 -51.33003,18.5799 -83.44203,23.65598 11.65975,30.34697 28.46375,60.78821 21.23469,84.09031 -2.07322,6.68157 -5.57064,13.77771 -10.12823,20.87486 35.06773,-1.63877 79.33766,-19.11999 93.89875,-44.34084 14.56109,-25.22086 7.56553,-72.30004 -8.54957,-103.48891 z"
         fill="#4a4a4a"
         fill-rule="evenodd"
         id="path3"
         style="stroke-width:0.725154" /><path
         stroke-width="0.725154"
         stroke-linecap="round"
         stroke-linejoin="round"
         fill="none"
         stroke="#4a4a4a"
         d="m 433.13535,286.60225 c -3.86724,7.49591 -8.26385,14.07234 -13.01361,19.2086 -16.56615,17.91203 -51.33003,18.5799 -83.44203,23.65598 11.65975,30.34697 28.46375,60.78821 21.23469,84.09031 -2.07322,6.68157 -5.57064,13.77771 -10.12823,20.87486 35.06773,-1.63877 79.33766,-19.11999 93.89875,-44.34084 14.56109,-25.22086 7.56553,-72.30004 -8.54957,-103.48891 z"
         id="path4" /><path
         d="m 188.19282,329.46683 c 5.61124,-14.57632 10.03033,-29.13234 10.03033,-42.86458 0,-13.73225 -4.41909,-28.28826 -10.03033,-42.86458 -32.11199,5.07607 -66.87617,5.74394 -83.44195,23.65525 -4.75027,5.13626 -9.146876,11.71268 -13.014122,19.20933 3.867246,7.49591 8.263852,14.07234 13.014122,19.2086 16.56578,17.91203 51.32996,18.5799 83.44195,23.65598 z"
         fill="#4a4a4a"
         fill-rule="evenodd"
         id="path5"
         style="stroke-width:0.725154" /><path
         stroke-width="0.725154"
         stroke-linecap="round"
         stroke-linejoin="round"
         fill="none"
         stroke="#4a4a4a"
         d="m 188.19282,329.46683 c 5.61124,-14.57632 10.03033,-29.13234 10.03033,-42.86458 0,-13.73225 -4.41909,-28.28826 -10.03033,-42.86458 -32.11199,5.07607 -66.87617,5.74394 -83.44195,23.65525 -4.75027,5.13626 -9.146876,11.71268 -13.014122,19.20933 3.867246,7.49591 8.263852,14.07234 13.014122,19.2086 16.56578,17.91203 51.32996,18.5799 83.44195,23.65598 z"
         id="path6" /><path
         d="m 433.13535,286.60225 c -3.86724,-7.49665 -8.26385,-14.07307 -13.01361,-19.20933 -16.56615,-17.91131 -51.33003,-18.57918 -83.44203,-23.65525 -5.61124,14.57632 -10.03033,29.13233 -10.03033,42.86458 0,13.73224 4.41909,28.28826 10.03033,42.86458 32.112,-5.07608 66.87588,-5.74395 83.44203,-23.65598 4.74976,-5.13626 9.14637,-11.71269 13.01361,-19.2086 z"
         fill="#4a4a4a"
         fill-rule="evenodd"
         id="path7"
         style="stroke-width:0.725154" /><path
         stroke-width="0.725154"
         stroke-linecap="round"
         stroke-linejoin="round"
         fill="none"
         stroke="#4a4a4a"
         d="m 433.13535,286.60225 c -3.86724,-7.49665 -8.26385,-14.07307 -13.01361,-19.20933 -16.56615,-17.91131 -51.33003,-18.57918 -83.44203,-23.65525 -5.61124,14.57632 -10.03033,29.13233 -10.03033,42.86458 0,13.73224 4.41909,28.28826 10.03033,42.86458 32.112,-5.07608 66.87588,-5.74395 83.44203,-23.65598 4.74976,-5.13626 9.14637,-11.71269 13.01361,-19.2086 z"
         id="path8" /><path
         d="m 188.19282,329.46683 c -32.11199,-5.07608 -66.87617,-5.74395 -83.44195,-23.65598 -4.75027,-5.13626 -9.146876,-11.71269 -13.014122,-19.2086 -16.114808,31.18887 -23.110369,78.26805 -8.549204,103.48891 14.561166,25.22085 58.830806,42.70207 93.898816,44.34084 -4.55832,-7.09715 -8.05501,-14.19329 -10.12822,-20.87486 -7.22906,-23.3021 9.57493,-53.74334 21.23468,-84.09031 z"
         fill="#b5d19d"
         fill-rule="evenodd"
         id="path9"
         style="stroke-width:0.725154" /><path
         stroke-width="0.652639"
         stroke-linecap="round"
         stroke-linejoin="round"
         fill="none"
         stroke="#b5d19d"
         d="m 188.19282,329.46683 c -32.11199,-5.07608 -66.87617,-5.74395 -83.44195,-23.65598 -4.75027,-5.13626 -9.146876,-11.71269 -13.014122,-19.2086 -16.114808,31.18887 -23.110369,78.26805 -8.549204,103.48891 14.561166,25.22085 58.830806,42.70207 93.898816,44.34084 -4.55832,-7.09715 -8.05501,-14.19329 -10.12822,-20.87486 -7.22906,-23.3021 9.57493,-53.74334 21.23468,-84.09031 z"
         id="path10" /><path
         d="m 433.13535,286.60225 c 16.1151,-31.1896 23.11066,-78.26878 8.54957,-103.48964 -14.56109,-25.22085 -58.83102,-42.70214 -93.89875,-44.34099 4.55759,7.09708 8.05501,14.19344 10.12823,20.87501 7.22906,23.30282 -9.57494,53.74334 -21.23469,84.09104 32.112,5.07607 66.87588,5.74394 83.44203,23.65525 4.74976,5.13626 9.14637,11.71268 13.01361,19.20933 z"
         fill="#b5d19d"
         fill-rule="evenodd"
         id="path11"
         style="stroke-width:0.725154" /><path
         stroke-width="0.652639"
         stroke-linecap="round"
         stroke-linejoin="round"
         fill="none"
         stroke="#b5d19d"
         d="m 433.13535,286.60225 c 16.1151,-31.1896 23.11066,-78.26878 8.54957,-103.48964 -14.56109,-25.22085 -58.83102,-42.70214 -93.89875,-44.34099 4.55759,7.09708 8.05501,14.19344 10.12823,20.87501 7.22906,23.30282 -9.57494,53.74334 -21.23469,84.09104 32.112,5.07607 66.87588,5.74394 83.44203,23.65525 4.74976,5.13626 9.14637,11.71268 13.01361,19.20933 z"
         id="path12" /><path
         d="m 262.43627,372.33141 c -9.81786,-12.14851 -20.21367,-23.25352 -32.1062,-30.11928 -11.89253,-6.86648 -26.70815,-10.31749 -42.13725,-12.7453 l -1.00216,2.59532 c -11.59377,29.47679 -27.25636,58.85496 -20.23252,81.49499 2.07321,6.68157 5.5699,13.77771 10.12822,20.87486 8.42556,0.39891 16.31887,-0.12044 23.14257,-1.66611 23.7952,-5.39043 41.75582,-35.16286 62.20734,-60.43448 z"
         fill="#b5d19d"
         fill-rule="evenodd"
         id="path13"
         style="stroke-width:0.725154" /><path
         stroke-width="0.652639"
         stroke-linecap="round"
         stroke-linejoin="round"
         fill="none"
         stroke="#b5d19d"
         d="m 262.43627,372.33141 c -9.81786,-12.14851 -20.21367,-23.25352 -32.1062,-30.11928 -11.89253,-6.86648 -26.70815,-10.31749 -42.13725,-12.7453 l -1.00216,2.59532 c -11.59377,29.47679 -27.25636,58.85496 -20.23252,81.49499 2.07321,6.68157 5.5699,13.77771 10.12822,20.87486 8.42556,0.39891 16.31887,-0.12044 23.14257,-1.66611 23.7952,-5.39043 41.75582,-35.16286 62.20734,-60.43448 z"
         id="path14" /><path
         d="m 336.67971,243.73767 c 11.65975,-30.3477 28.46375,-60.78822 21.23469,-84.09104 -2.07322,-6.68157 -5.57064,-13.77793 -10.12823,-20.87501 -8.42556,-0.39883 -16.31959,0.12038 -23.14256,1.6664 -23.79521,5.3908 -41.75582,35.16345 -62.20734,60.43506 9.81786,12.14779 20.21366,23.25279 32.10619,30.11855 11.89253,6.86649 26.70815,10.31749 42.13725,12.74604 z"
         fill="#b5d19d"
         fill-rule="evenodd"
         id="path15"
         style="stroke-width:0.725154" /><path
         stroke-width="0.652639"
         stroke-linecap="round"
         stroke-linejoin="round"
         fill="none"
         stroke="#b5d19d"
         d="m 336.67971,243.73767 c 11.65975,-30.3477 28.46375,-60.78822 21.23469,-84.09104 -2.07322,-6.68157 -5.57064,-13.77793 -10.12823,-20.87501 -8.42556,-0.39883 -16.31959,0.12038 -23.14256,1.6664 -23.79521,5.3908 -41.75582,35.16345 -62.20734,60.43506 9.81786,12.14779 20.21366,23.25279 32.10619,30.11855 11.89253,6.86649 26.70815,10.31749 42.13725,12.74604 z"
         id="path16" /><path
         d="m 347.78617,138.77162 c -18.95335,-29.55003 -56.22772,-59.147914 -85.3499,-59.147914 -29.12219,0 -66.39656,29.597884 -85.34991,59.147914 8.42556,-0.39883 16.31887,0.12038 23.14257,1.6664 23.7952,5.3908 41.75582,35.16345 62.20734,60.43506 20.45152,-25.27161 38.41213,-55.04426 62.20734,-60.43506 6.82297,-1.54602 14.717,-2.06523 23.14256,-1.6664 z"
         fill="#c52529"
         fill-rule="evenodd"
         id="path17"
         style="stroke-width:0.725154" /><path
         stroke-width="0.725154"
         stroke-linecap="round"
         stroke-linejoin="round"
         fill="none"
         stroke="#c52529"
         d="m 347.78617,138.77162 c -18.95335,-29.55003 -56.22772,-59.147914 -85.3499,-59.147914 -29.12219,0 -66.39656,29.597884 -85.34991,59.147914 8.42556,-0.39883 16.31887,0.12038 23.14257,1.6664 23.7952,5.3908 41.75582,35.16345 62.20734,60.43506 20.45152,-25.27161 38.41213,-55.04426 62.20734,-60.43506 6.82297,-1.54602 14.717,-2.06523 23.14256,-1.6664 z"
         id="path18" /><path
         d="m 347.78617,434.432 c -8.42556,0.39891 -16.31959,-0.12044 -23.14256,-1.66611 -23.79521,-5.39043 -41.75582,-35.16286 -62.20734,-60.43448 -20.45152,25.27162 -38.41214,55.04405 -62.20734,60.43448 -6.8237,1.54567 -14.71701,2.06502 -23.14257,1.66611 18.95335,29.55054 56.22772,59.1485 85.34991,59.1485 29.12218,0 66.39655,-29.59796 85.3499,-59.1485 z"
         fill="#c52529"
         fill-rule="evenodd"
         id="path19"
         style="stroke-width:0.725154" /><path
         stroke-width="0.725154"
         stroke-linecap="round"
         stroke-linejoin="round"
         fill="none"
         stroke="#c52529"
         d="m 347.78617,434.432 c -8.42556,0.39891 -16.31959,-0.12044 -23.14256,-1.66611 -23.79521,-5.39043 -41.75582,-35.16286 -62.20734,-60.43448 -20.45152,25.27162 -38.41214,55.04405 -62.20734,60.43448 -6.8237,1.54567 -14.71701,2.06502 -23.14257,1.66611 18.95335,29.55054 56.22772,59.1485 85.34991,59.1485 29.12218,0 66.39655,-29.59796 85.3499,-59.1485 z"
         id="path20" /><path
         d="m 262.43627,200.87308 c -20.45152,-25.27161 -38.41214,-55.04426 -62.20734,-60.43506 -6.8237,-1.54602 -14.71701,-2.06523 -23.14257,-1.6664 -4.55832,7.09708 -8.05501,14.19344 -10.12822,20.87501 -7.02384,22.64003 8.63875,52.0182 20.23252,81.49498 l 1.00216,2.59606 c 15.4291,-2.42855 30.24472,-5.87955 42.13725,-12.74604 11.89253,-6.86576 22.28834,-17.97076 32.1062,-30.11855 z"
         fill="#c52529"
         fill-rule="evenodd"
         id="path21"
         style="stroke-width:0.725154" /><path
         stroke-width="0.725154"
         stroke-linecap="round"
         stroke-linejoin="round"
         fill="none"
         stroke="#c52529"
         d="m 262.43627,200.87308 c -20.45152,-25.27161 -38.41214,-55.04426 -62.20734,-60.43506 -6.8237,-1.54602 -14.71701,-2.06523 -23.14257,-1.6664 -4.55832,7.09708 -8.05501,14.19344 -10.12822,20.87501 -7.02384,22.64003 8.63875,52.0182 20.23252,81.49498 l 1.00216,2.59606 c 15.4291,-2.42855 30.24472,-5.87955 42.13725,-12.74604 11.89253,-6.86576 22.28834,-17.97076 32.1062,-30.11855 z"
         id="path22" /><path
         d="m 337.68188,332.06215 -1.00217,-2.59532 c -15.4291,2.42781 -30.24472,5.87882 -42.13725,12.7453 -11.89253,6.86576 -22.28833,17.97077 -32.10619,30.11928 20.45152,25.27162 38.41213,55.04405 62.20734,60.43448 6.82297,1.54567 14.717,2.06502 23.14256,1.66611 4.55759,-7.09715 8.05501,-14.19329 10.12823,-20.87486 7.02384,-22.64003 -8.63876,-52.0182 -20.23252,-81.49499 z"
         fill="#c52529"
         fill-rule="evenodd"
         id="path23"
         style="stroke-width:0.725154" /><path
         stroke-width="0.725154"
         stroke-linecap="round"
         stroke-linejoin="round"
         fill="none"
         stroke="#c52529"
         d="m 337.68188,332.06215 -1.00217,-2.59532 c -15.4291,2.42781 -30.24472,5.87882 -42.13725,12.7453 -11.89253,6.86576 -22.28833,17.97077 -32.10619,30.11928 20.45152,25.27162 38.41213,55.04405 62.20734,60.43448 6.82297,1.54567 14.717,2.06502 23.14256,1.66611 4.55759,-7.09715 8.05501,-14.19329 10.12823,-20.87486 7.02384,-22.64003 -8.63876,-52.0182 -20.23252,-81.49499 z"
         id="path24" /></g></g></svg>
